<?xml version="1.0" encoding="utf-8"?>
<!-- Generated by IcoMoon.io -->
<!DOCTYPE svg PUBLIC "-//W3C//DTD SVG 1.1//EN" "http://www.w3.org/Graphics/SVG/1.1/DTD/svg11.dtd">
<svg version="1.1" xmlns="http://www.w3.org/2000/svg" xmlns:xlink="http://www.w3.org/1999/xlink" width="32" height="32" viewBox="0 0 32 32">
<g id="icomoon-ignore">
	<line stroke-width="1" x1="" y1="" x2="" y2="" stroke="#449FDB" opacity=""></line>
</g>
	<path d="M20.136 29.87c-0.555-0.408-0.614-1.020-0.614-1.020l-0.208-1.33h-6.628l-0.209 1.329c0 0-0.058 0.613-0.612 1.021s-0.992 0.758-0.554 0.817c0.421 0.057 4.397 0.005 4.69 0 0.294 0.005 4.268 0.057 4.69 0 0.437-0.059-0.001-0.408-0.554-0.817z" fill="#000000"></path>
	<path d="M8.533 19.249c1.771-0.014 1.991-0.441 2.569-2.218 1.065-2.806 5.859 0.734 2.888 1.963s-7.227 0.269-5.456 0.255z" fill="#000000"></path>
	<path d="M26.692 0.758c-0.86-0.692-2.283-0.351-3.18 0.762l-9.085 12.908c-0.897 1.113-0.892 0.9-0.033 1.592s0.652 0.742 1.549-0.371l10.681-11.621c0.897-1.114 0.928-2.577 0.068-3.269zM24.356 2.303c0 0-0.133-0.155-0.576-0.508 0.664-1.084 1.968-0.885 1.968-0.885-1.237 0.73-1.392 1.394-1.392 1.394z" fill="#000000"></path>
	<path d="M30.72 5.12h-3.995l-1.764 1.92h5.12v15.36h-28.16v-15.36h16.381l1.352-1.92h-18.374c-0.707 0-1.28 0.573-1.28 1.28v18.56c0 0.707 0.573 1.28 1.28 1.28h29.44c0.707 0 1.28-0.573 1.28-1.28v-18.56c0-0.707-0.573-1.28-1.28-1.28z" fill="#000000"></path>
</svg>
