<?xml version="1.0" encoding="utf-8"?>
<!-- Generated by IcoMoon.io -->
<!DOCTYPE svg PUBLIC "-//W3C//DTD SVG 1.1//EN" "http://www.w3.org/Graphics/SVG/1.1/DTD/svg11.dtd">
<svg version="1.1" xmlns="http://www.w3.org/2000/svg" xmlns:xlink="http://www.w3.org/1999/xlink" width="32" height="32" viewBox="0 0 32 32">
<g id="icomoon-ignore">
	<line stroke-width="1" x1="" y1="" x2="" y2="" stroke="#449FDB" opacity=""></line>
</g>
	<path d="M26.211 12.45h-0.622v-3.001c0-0.019-0.003-0.038-0.005-0.057-0.001-0.119-0.039-0.236-0.121-0.329l-4.995-5.705c-0.002-0.002-0.003-0.002-0.004-0.004-0.030-0.033-0.064-0.061-0.101-0.085-0.011-0.007-0.022-0.013-0.033-0.020-0.032-0.017-0.066-0.032-0.1-0.042-0.009-0.003-0.018-0.006-0.027-0.009-0.038-0.009-0.077-0.014-0.117-0.014h-12.275c-0.561 0-1.016 0.456-1.016 1.016v8.25h-0.622c-0.802 0-1.452 0.65-1.452 1.452v7.55c0 0.802 0.65 1.452 1.452 1.452h0.622v5.169c0 0.56 0.455 1.016 1.016 1.016h16.762c0.56 0 1.016-0.456 1.016-1.016v-5.168h0.622c0.802 0 1.452-0.65 1.452-1.452v-7.55c0-0.802-0.65-1.452-1.452-1.452zM7.812 4.2h11.767v5.197c0 0.281 0.228 0.508 0.508 0.508h4.487v2.545h-16.762v-8.25zM22.357 20.302h-1.228l-0.082-2.185c-0.025-0.686-0.050-1.516-0.050-2.347h-0.024c-0.174 0.728-0.404 1.542-0.619 2.211l-0.675 2.228h-0.981l-0.594-2.211c-0.181-0.669-0.371-1.483-0.503-2.228h-0.017c-0.033 0.771-0.058 1.652-0.099 2.363l-0.099 2.169h-1.162l0.354-5.709h1.673l0.544 1.906c0.174 0.661 0.346 1.372 0.47 2.042h0.024c0.157-0.661 0.346-1.415 0.528-2.050l0.593-1.898h1.64l0.304 5.709zM11.444 15.677v-1.084h4.269v1.084h-1.516v4.625h-1.261v-4.625h-1.491zM7.445 17.914v2.389h-1.26v-5.71h1.26v2.194h2.069v-2.194h1.253v5.709h-1.253v-2.389h-2.069zM24.573 27.798h-16.762v-4.893h16.762v4.893zM26.793 20.302h-3.47v-5.71h1.261v4.625h2.209v1.085z" fill="#000000"></path>
</svg>
