<?xml version="1.0" encoding="utf-8"?>
<!-- Generated by IcoMoon.io -->
<!DOCTYPE svg PUBLIC "-//W3C//DTD SVG 1.1//EN" "http://www.w3.org/Graphics/SVG/1.1/DTD/svg11.dtd">
<svg version="1.1" xmlns="http://www.w3.org/2000/svg" xmlns:xlink="http://www.w3.org/1999/xlink" width="32" height="32" viewBox="0 0 32 32">
<g id="icomoon-ignore">
	<line stroke-width="1" x1="" y1="" x2="" y2="" stroke="#449FDB" opacity=""></line>
</g>
	<path d="M8.108 9.616c0 1.303-1.056 2.359-2.359 2.359s-2.359-1.056-2.359-2.359c0-1.303 1.056-2.359 2.359-2.359s2.359 1.056 2.359 2.359z" fill="#000000"></path>
	<path d="M10.337 19.75c-0.063-0.546-0.526-0.958-1.075-0.958l-1.877 0.002v-2.579c0.63 0.552 1.341 0.9 2.271 0.9 0.567 0 1.216-0.13 1.975-0.42 0.473-0.181 0.709-0.711 0.528-1.183s-0.71-0.708-1.182-0.528c-1.849 0.708-2.214 0.313-3.838-1.908-0.004-0.005-0.008-0.008-0.012-0.013-0.311-0.486-0.857-0.813-1.378-0.941 0 0-0.248-0.075-0.513-0.069-0.253 0.006-0.535 0.065-0.535 0.065l-0.007 0.001c-0.794 0.194-1.639 0.841-1.639 1.811l0.001 5.207c0 1.132 1.124 1.832 2.165 1.832 0.058 0 0.116-0.005 0.174-0.009l2.904-0.002 0.619 5.347c0.064 0.551 0.532 0.958 1.074 0.958 0.042 0 0.084-0.003 0.126-0.007 0.593-0.069 1.019-0.606 0.95-1.2l-0.731-6.306z" fill="#000000"></path>
	<path d="M8.012 22.185c0-0.506-0.41-0.916-0.916-0.916h-4.524v-7.264c0-0.505-0.41-0.916-0.916-0.916s-0.916 0.41-0.916 0.916v8.181c0 0.335 0.181 0.628 0.45 0.788-0.175 0.311-0.274 0.67-0.274 1.051v2.561c0 0.424 0.343 0.767 0.766 0.767s0.767-0.343 0.767-0.767v-2.561c0-0.346 0.281-0.628 0.628-0.628h2.561c0.346 0 0.628 0.281 0.628 0.628v2.561c0 0.424 0.343 0.767 0.767 0.767s0.767-0.343 0.767-0.767v-2.561c0-0.375-0.096-0.727-0.264-1.034 0.284-0.155 0.477-0.457 0.477-0.804z" fill="#000000"></path>
	<path d="M28.61 9.616c0 1.303-1.056 2.359-2.359 2.359s-2.359-1.056-2.359-2.359c0-1.303 1.056-2.359 2.359-2.359s2.359 1.056 2.359 2.359z" fill="#000000"></path>
	<path d="M26.78 20.969c1.041 0 2.165-0.7 2.165-1.832v-5.207c0-0.97-0.845-1.617-1.638-1.811l-0.007-0.001c0 0-0.282-0.059-0.535-0.065-0.264-0.006-0.512 0.069-0.512 0.069-0.521 0.128-1.067 0.455-1.378 0.941-0.004 0.005-0.008 0.008-0.012 0.013-1.624 2.22-1.989 2.616-3.838 1.908-0.473-0.181-1.002 0.056-1.183 0.528s0.056 1.002 0.528 1.183c0.759 0.291 1.408 0.42 1.975 0.42 0.93 0 1.641-0.348 2.271-0.9v2.579l-1.877-0.002c-0 0-0 0-0.001 0-0.55 0-1.012 0.412-1.075 0.958l-0.731 6.306c-0.069 0.594 0.357 1.131 0.951 1.2 0.042 0.005 0.084 0.007 0.125 0.007 0.542 0 1.010-0.407 1.074-0.958l0.62-5.347 2.904 0.002c0.058 0.004 0.116 0.009 0.174 0.009z" fill="#000000"></path>
	<path d="M31.259 22.185v-8.18c0-0.505-0.41-0.916-0.916-0.916s-0.916 0.41-0.916 0.916v7.264h-4.524c-0.506 0-0.916 0.41-0.916 0.916 0 0.347 0.193 0.649 0.477 0.804-0.168 0.308-0.264 0.66-0.264 1.034v2.561c0 0.424 0.343 0.767 0.767 0.767s0.767-0.343 0.767-0.767v-2.561c0-0.346 0.281-0.628 0.628-0.628h2.561c0.346 0 0.628 0.281 0.628 0.628v2.561c0 0.424 0.343 0.767 0.767 0.767s0.767-0.343 0.767-0.767v-2.561c0-0.381-0.1-0.74-0.274-1.051 0.268-0.16 0.449-0.452 0.449-0.788z" fill="#000000"></path>
	<path d="M21.779 18.182c0-0.485-0.393-0.877-0.877-0.877h-10.18c-0.485 0-0.877 0.393-0.877 0.877s0.393 0.877 0.877 0.877h1.204v7.793h7.771v-7.793h1.204c0.485 0 0.877-0.393 0.877-0.877z" fill="#000000"></path>
	<path d="M9.767 8.359h0.212l-0.523 1.262 1.489-1.262h1.458v-0.62c0-0.366 0.297-0.664 0.664-0.664h5.907v-4.178c0-0.367-0.297-0.665-0.664-0.665h-8.542c-0.367 0-0.664 0.298-0.664 0.665v4.798c0 0.367 0.297 0.664 0.664 0.664zM16.073 4.386c0.353 0 0.64 0.287 0.64 0.64s-0.286 0.64-0.64 0.64-0.64-0.286-0.64-0.64c0-0.354 0.286-0.64 0.64-0.64zM14.073 4.386c0.354 0 0.64 0.287 0.64 0.64s-0.286 0.64-0.64 0.64c-0.353 0-0.64-0.286-0.64-0.64s0.286-0.64 0.64-0.64zM12.004 4.386c0.353 0 0.64 0.287 0.64 0.64s-0.286 0.64-0.64 0.64-0.64-0.286-0.64-0.64c0-0.354 0.286-0.64 0.64-0.64z" fill="#000000"></path>
	<path d="M12.899 8.234v4.798c0 0.367 0.298 0.664 0.664 0.664h7.365l1.49 1.262-0.524-1.262h0.212c0.367 0 0.665-0.297 0.665-0.664v-4.798c0-0.367-0.297-0.664-0.665-0.664h-8.543c-0.366 0-0.664 0.297-0.664 0.664zM19.869 9.846c0.353 0 0.64 0.287 0.64 0.64s-0.286 0.64-0.64 0.64-0.64-0.286-0.64-0.64c0-0.354 0.286-0.64 0.64-0.64zM17.869 9.846c0.354 0 0.64 0.287 0.64 0.64s-0.286 0.64-0.64 0.64c-0.353 0-0.64-0.286-0.64-0.64s0.286-0.64 0.64-0.64zM15.8 9.846c0.353 0 0.64 0.287 0.64 0.64s-0.286 0.64-0.64 0.64-0.64-0.286-0.64-0.64c0-0.354 0.286-0.64 0.64-0.64z" fill="#000000"></path>
</svg>
